<svg width="40" height="40" viewBox="0 0 40 40" fill="none" xmlns="http://www.w3.org/2000/svg">
<path d="M21.7537 17.8882C20.7753 16.9258 19.1949 16.9258 18.2291 17.8882C17.2633 18.8506 17.2507 20.4053 18.2291 21.3554C18.7183 21.8366 19.358 22.071 19.9977 22.071C20.6374 22.071 21.277 21.8366 21.7662 21.3554C22.7446 20.393 22.7446 18.8383 21.7662 17.8882H21.7537ZM20.8631 20.4917C20.3739 20.9729 19.5963 20.9729 19.1071 20.4917C18.6179 20.0105 18.6179 19.2455 19.1071 18.7642C19.3454 18.5298 19.6715 18.4064 19.9851 18.4064C20.2987 18.4064 20.6248 18.5298 20.8631 18.7642C21.3523 19.2455 21.3523 20.0105 20.8631 20.4917Z" fill="#FFF3E8"/>
<path d="M39.9314 18.1808C39.4379 13.5747 36.388 9.57694 32.2372 7.62772C30.2503 3.55545 26.188 0.575752 21.493 0.0791345C17.5953 -0.330575 13.8494 0.861307 10.964 3.40647C9.60992 4.59835 8.5469 6.03854 7.78759 7.62772C3.62408 9.58935 0.586864 13.5747 0.0806618 18.1808C-0.336955 22.0048 0.877931 25.6798 3.47222 28.5105C4.6871 29.8389 6.15509 30.8818 7.76228 31.6267C8.52158 33.2035 9.58461 34.6437 10.9387 35.8356C13.4571 38.0579 16.6208 39.2374 19.9744 39.2374C20.468 39.2374 20.9742 39.2126 21.4677 39.1629C26.1627 38.6787 30.2377 35.699 32.2245 31.6267C33.8317 30.8818 35.3123 29.8389 36.5272 28.5105C39.1342 25.6673 40.3364 22.0048 39.9188 18.1808H39.9314ZM11.7992 4.33763C14.0772 2.32633 16.9499 1.24619 19.9871 1.24619C20.4426 1.24619 20.8856 1.27102 21.3538 1.32068C25.125 1.71797 28.4533 3.87826 30.4148 6.93245C29.7947 6.74622 29.1493 6.59724 28.4913 6.49791C26.1121 6.15028 23.6823 6.42342 21.4677 7.2925C20.5312 7.65255 19.4682 7.65255 18.5317 7.2925C16.3298 6.42342 13.9 6.15028 11.5082 6.49791C10.8501 6.59724 10.2174 6.74622 9.59726 6.93245C10.2047 5.98888 10.926 5.10738 11.7866 4.35004L11.7992 4.33763ZM32.1486 11.4889C32.4776 13.6368 32.2245 15.7474 31.4146 17.7339C30.921 18.9382 30.921 20.3287 31.4146 21.533C32.2245 23.5195 32.465 25.6301 32.1486 27.778C31.9967 28.796 31.7056 29.7768 31.3007 30.6956C29.7821 31.3288 28.1496 31.6764 26.4665 31.6764C24.9099 31.6764 23.3913 31.3908 21.9486 30.8197C21.3285 30.5838 20.6704 30.4597 20.0124 30.4597C19.3543 30.4597 18.6962 30.5838 18.0762 30.8197C16.6335 31.3908 15.1149 31.6764 13.5583 31.6764C11.8878 31.6764 10.2427 31.3288 8.73672 30.6956C8.09131 29.2181 7.73697 27.6041 7.73697 25.9653C7.73697 24.4382 8.02804 22.9484 8.61017 21.533C9.10372 20.3287 9.10372 18.9382 8.61017 17.7339C8.02804 16.3185 7.73697 14.8287 7.73697 13.3016C7.73697 11.6503 8.09131 10.0487 8.73672 8.55887C9.6732 8.16158 10.6729 7.87602 11.7107 7.72704C13.9 7.40424 16.0513 7.65255 18.0762 8.44713C19.3037 8.93134 20.7211 8.93134 21.9486 8.44713C23.9734 7.65255 26.1248 7.40424 28.3141 7.72704C29.3518 7.87602 30.3516 8.16158 31.3007 8.57129C31.7056 9.49003 32.0094 10.4833 32.1612 11.5013L32.1486 11.4889ZM4.42135 27.6911C2.06751 25.1211 0.966516 21.7937 1.34617 18.3174C1.75113 14.6176 3.95311 11.3523 7.06625 9.41554C6.67395 10.6571 6.45881 11.9731 6.45881 13.3016C6.45881 14.9901 6.77519 16.6289 7.42059 18.1932C7.78759 19.112 7.78759 20.1549 7.42059 21.0736C6.78784 22.638 6.45881 24.2768 6.45881 25.9653C6.45881 27.2938 6.67395 28.5974 7.06625 29.8389C6.09181 29.243 5.1933 28.5353 4.42135 27.6786V27.6911ZM21.3538 37.9462C17.8104 38.3187 14.4188 37.2385 11.7992 34.9292C10.9387 34.1719 10.2047 33.2904 9.59726 32.3344C10.8628 32.7193 12.1916 32.9304 13.5456 32.9304C15.2667 32.9304 16.9372 32.62 18.5317 31.9868C19.4682 31.6267 20.5312 31.6267 21.4677 31.9868C23.0622 32.6076 24.7454 32.9304 26.4538 32.9304C27.8079 32.9304 29.1367 32.7193 30.4148 32.3344C28.4533 35.3886 25.1124 37.5613 21.3412 37.9462H21.3538ZM32.9585 29.8389C33.1483 29.2306 33.3002 28.6098 33.4014 27.9642C33.7558 25.6301 33.4774 23.2463 32.5915 21.0736C32.2245 20.1549 32.2245 19.112 32.5915 18.1932C33.4774 16.0205 33.7558 13.6492 33.4014 11.3027C33.3002 10.6571 33.1483 10.0363 32.9585 9.41554C36.0716 11.3399 38.2736 14.6176 38.6786 18.305C39.0582 21.7813 37.9572 25.1086 35.6034 27.6786C34.8314 28.5229 33.9329 29.243 32.9712 29.8265L32.9585 29.8389Z" fill="#FFF3E8"/>
<path d="M26.2441 14.3554C25.2184 13.1086 23.7123 12.358 22.0893 12.2689C21.3752 12.2308 20.6741 12.3453 20.012 12.5616C18.2072 11.9891 16.1558 12.2944 14.6367 13.503C13.3643 14.508 12.5983 15.9838 12.5074 17.5741C12.4685 18.2738 12.5853 18.9735 12.806 19.6223C12.5853 20.2839 12.4685 20.9709 12.5074 21.6706C12.5983 23.2481 13.3643 24.7366 14.6367 25.7417C15.6624 26.5559 16.9348 26.963 18.2202 26.963C18.8304 26.963 19.4537 26.8612 20.0379 26.6704C20.6092 26.8485 21.1935 26.9757 21.8037 26.9757C21.9076 26.9757 21.9984 26.9757 22.1023 26.9757C23.7123 26.8867 25.2314 26.1361 26.2571 24.8893C27.4775 23.4135 27.8021 21.3907 27.2179 19.6351C27.8021 17.8667 27.4775 15.8566 26.2571 14.3808L26.2441 14.3554ZM25.2314 15.1569C25.8676 15.9202 26.1792 16.8744 26.1922 17.8158C25.6079 17.1288 24.8808 16.5817 24.0499 16.2255C23.7772 16.111 23.5565 15.8948 23.4396 15.6276C23.0761 14.8134 22.5178 14.1009 21.8037 13.5284C21.8686 13.5284 21.9465 13.5284 22.0114 13.5284C23.2838 13.592 24.4134 14.1645 25.2184 15.1441L25.2314 15.1569ZM20.8169 24.8511C20.5573 25.042 20.2846 25.1819 19.999 25.3091C19.5056 25.0928 19.0512 24.813 18.6617 24.4313C18.2721 24.0496 17.9605 23.5916 17.7398 23.0955C17.4931 22.5357 17.0257 22.0777 16.4544 21.836C15.9351 21.6197 15.4807 21.3144 15.0912 20.9327C14.7016 20.551 14.416 20.1058 14.1953 19.6351C14.416 19.1516 14.7016 18.7063 15.0912 18.3374C15.4807 17.9685 15.9481 17.6504 16.4544 17.4341C17.0257 17.1924 17.4931 16.7344 17.7398 16.1746C17.9605 15.6785 18.2721 15.2205 18.6617 14.8388C19.0512 14.4572 19.5056 14.1645 19.986 13.961C20.2716 14.0882 20.5573 14.2282 20.8169 14.419C21.4531 14.8897 21.9465 15.4749 22.2451 16.1874C22.4918 16.7471 22.9592 17.2051 23.5305 17.4468C24.2446 17.7522 24.8548 18.2229 25.3352 18.8463C25.53 19.1007 25.6728 19.3679 25.8027 19.6605C25.6728 19.9404 25.53 20.2203 25.3352 20.4747C24.8548 21.0981 24.2576 21.5688 23.5305 21.8741C22.9592 22.1159 22.4918 22.5739 22.2451 23.1336C21.9335 23.8461 21.4531 24.4313 20.8169 24.902V24.8511ZM13.7928 17.6377C13.8577 16.4036 14.442 15.2841 15.4417 14.4953C16.2337 13.8719 17.2075 13.5539 18.1942 13.5539C18.0384 13.6684 17.8826 13.7829 17.7398 13.9101C17.2335 14.4063 16.818 14.9915 16.5323 15.653C16.4155 15.9202 16.1948 16.1365 15.9221 16.2382C15.2599 16.5181 14.6627 16.9125 14.1433 17.4214C14.0135 17.5486 13.9096 17.714 13.7928 17.854C13.7928 17.7776 13.7798 17.714 13.7928 17.6377ZM15.4417 24.7493C14.442 23.9606 13.8577 22.841 13.7928 21.607C13.7928 21.5306 13.7928 21.467 13.7928 21.3907C13.9096 21.5306 14.0135 21.696 14.1433 21.8233C14.6497 22.3194 15.247 22.7265 15.9221 23.0064C16.1948 23.1209 16.4155 23.3372 16.5194 23.5916C16.805 24.2405 17.2075 24.8257 17.7268 25.3346C17.8567 25.4618 18.0255 25.5763 18.1683 25.6908C17.1945 25.6908 16.2077 25.3727 15.4287 24.7493H15.4417ZM25.2184 24.0751C24.4134 25.0547 23.2708 25.6272 22.0114 25.6908C21.9465 25.6908 21.8816 25.6908 21.8297 25.6908C22.5308 25.1183 23.0891 24.4058 23.4396 23.6044C23.5565 23.3372 23.7772 23.1209 24.0369 23.0191C24.8678 22.6756 25.5949 22.1159 26.1792 21.4289C26.1792 22.383 25.8546 23.3245 25.2184 24.0878V24.0751Z" fill="#FFF3E8"/>
</svg>
