<svg width="16" height="15" viewBox="0 0 16 15" fill="none" xmlns="http://www.w3.org/2000/svg">
<path d="M9.75369 5.88819C8.77532 4.92576 7.19489 4.92576 6.22908 5.88819C5.26326 6.85061 5.25071 8.4053 6.22908 9.35539C6.71826 9.8366 7.35796 10.071 7.99765 10.071C8.63735 10.071 9.27705 9.8366 9.76623 9.35539C10.7446 8.39296 10.7446 6.83827 9.76623 5.88819H9.75369ZM8.86313 8.49167C8.37395 8.97289 7.59627 8.97289 7.10709 8.49167C6.61791 8.01046 6.61791 7.24545 7.10709 6.76424C7.34541 6.5298 7.67153 6.40642 7.98511 6.40642C8.29869 6.40642 8.62481 6.5298 8.86313 6.76424C9.35231 7.24545 9.35231 8.01046 8.86313 8.49167Z" fill="#FDBBFB"/>
<path d="M14.2441 2.35537C13.2184 1.10861 11.7123 0.358002 10.0893 0.268947C9.37523 0.230781 8.67412 0.34528 8.01195 0.561556C6.20722 -0.0109389 4.15581 0.294392 2.63672 1.50299C1.36433 2.50804 0.598293 3.98381 0.507408 5.57407C0.468457 6.27379 0.58531 6.9735 0.806032 7.62233C0.58531 8.28388 0.468457 8.97088 0.507408 9.67059C0.598293 11.2481 1.36433 12.7366 2.63672 13.7417C3.66243 14.5559 4.93483 14.963 6.22021 14.963C6.83044 14.963 7.45365 14.8612 8.03792 14.6704C8.6092 14.8485 9.19346 14.9757 9.80369 14.9757C9.90756 14.9757 9.99845 14.9757 10.1023 14.9757C11.7123 14.8867 13.2314 14.1361 14.2571 12.8893C15.4775 11.4135 15.8021 9.3907 15.2179 7.63505C15.8021 5.86668 15.4775 3.85658 14.2571 2.38082L14.2441 2.35537ZM13.2314 3.15687C13.8676 3.9202 14.1792 4.87435 14.1922 5.81579C13.6079 5.1288 12.8808 4.58174 12.0499 4.22552C11.7772 4.11103 11.5565 3.89475 11.4396 3.62759C11.0761 2.81337 10.5178 2.10093 9.80369 1.52844C9.86861 1.52844 9.94651 1.52844 10.0114 1.52844C11.2838 1.59205 12.4134 2.16454 13.2184 3.14415L13.2314 3.15687ZM8.81694 12.8511C8.55726 13.042 8.28461 13.1819 7.99897 13.3091C7.50559 13.0928 7.05116 12.813 6.66165 12.4313C6.27214 12.0496 5.96054 11.5916 5.73981 11.0955C5.49312 10.5357 5.02571 10.0777 4.45443 9.83598C3.93509 9.6197 3.48066 9.31437 3.09115 8.93271C2.70164 8.55105 2.416 8.10577 2.19528 7.63505C2.416 7.15161 2.70164 6.70634 3.09115 6.3374C3.48066 5.96846 3.94807 5.6504 4.45443 5.43413C5.02571 5.19241 5.49312 4.73441 5.73981 4.17464C5.96054 3.67847 6.27214 3.22048 6.66165 2.83882C7.05116 2.45715 7.50559 2.16454 7.98598 1.96099C8.27162 2.08821 8.55726 2.22815 8.81694 2.41898C9.45313 2.8897 9.94651 3.47492 10.2451 4.18736C10.4918 4.74713 10.9592 5.20513 11.5305 5.44685C12.2446 5.75218 12.8548 6.2229 13.3352 6.84628C13.53 7.10072 13.6728 7.36789 13.8027 7.6605C13.6728 7.94038 13.53 8.22027 13.3352 8.47471C12.8548 9.0981 12.2576 9.56881 11.5305 9.87415C10.9592 10.1159 10.4918 10.5739 10.2451 11.1336C9.93353 11.8461 9.45313 12.4313 8.81694 12.902V12.8511ZM1.79279 5.63768C1.85771 4.40364 2.44197 3.28409 3.44171 2.49532C4.23371 1.87193 5.20748 1.55388 6.19424 1.55388C6.03844 1.66838 5.88263 1.78288 5.73981 1.9101C5.23345 2.40626 4.81798 2.99148 4.53234 3.65303C4.41548 3.92019 4.19476 4.13647 3.9221 4.23825C3.25994 4.51813 2.66269 4.91252 2.14335 5.4214C2.01351 5.54863 1.90964 5.71401 1.79279 5.85396C1.79279 5.77762 1.7798 5.71401 1.79279 5.63768ZM3.44171 12.7493C2.44197 11.9606 1.85771 10.841 1.79279 9.60698C1.79279 9.53065 1.79279 9.46704 1.79279 9.3907C1.90964 9.53065 2.01351 9.69603 2.14335 9.82326C2.64971 10.3194 3.24696 10.7265 3.9221 11.0064C4.19476 11.1209 4.41548 11.3372 4.51935 11.5916C4.80499 12.2405 5.20749 12.8257 5.72683 13.3346C5.85667 13.4618 6.02545 13.5763 6.16827 13.6908C5.1945 13.6908 4.20774 13.3727 3.42873 12.7493H3.44171ZM13.2184 12.0751C12.4134 13.0547 11.2708 13.6272 10.0114 13.6908C9.94651 13.6908 9.88159 13.6908 9.82966 13.6908C10.5308 13.1183 11.0891 12.4058 11.4396 11.6044C11.5565 11.3372 11.7772 11.1209 12.0369 11.0191C12.8678 10.6756 13.5949 10.1159 14.1792 9.42887C14.1792 10.383 13.8546 11.3245 13.2184 12.0878V12.0751Z" fill="#FDBBFB"/>
</svg>
