<svg width="453" height="444" viewBox="0 0 453 444" fill="none" xmlns="http://www.w3.org/2000/svg">
<path d="M257.376 366.895C276.597 352.903 290.329 335.091 298.838 315.631C303.447 305.206 312.039 296.777 322.667 292.257C342.505 283.91 360.663 270.44 374.927 251.585C409.126 206.404 407.824 142.563 371.714 98.7999C323.126 39.8413 234.845 36.4889 181.694 88.626C169.913 100.183 161.052 113.389 154.759 127.55C150.151 137.975 141.558 146.404 130.93 150.925C116.583 157.011 103.032 165.789 91.2499 177.346C38.0994 229.483 41.4284 316.168 101.533 363.83C146.058 399.165 211.229 400.528 257.288 366.982L257.376 366.895Z" stroke="#1E2028" stroke-miterlimit="10"/>
<path d="M78.7194 251.688C92.9834 270.542 111.141 284.012 130.98 292.359C141.607 296.88 150.2 305.309 154.809 315.734C163.317 335.194 177.05 353.006 196.27 366.998C242.329 400.544 307.412 399.267 352.025 363.846C412.13 316.184 415.547 229.586 362.397 177.448C350.615 165.891 337.152 157.2 322.716 151.027C312.089 146.506 303.496 138.077 298.887 127.652C292.683 113.579 283.734 100.286 271.953 88.7284C218.802 36.5913 130.432 39.8568 81.8439 98.8154C45.8228 142.492 44.4325 206.42 78.6308 251.601L78.7194 251.688Z" stroke="#1E2028" stroke-miterlimit="10"/>
</svg>
