<svg width="742" height="728" viewBox="0 0 742 728" fill="none" xmlns="http://www.w3.org/2000/svg">
<path d="M421.196 602.328C452.751 579.357 475.295 550.116 489.263 518.169C496.83 501.054 510.936 487.217 528.383 479.795C560.952 466.092 590.761 443.978 614.179 413.025C670.321 338.852 668.184 234.044 608.904 162.199C529.136 65.407 384.206 59.9035 296.95 145.496C277.608 164.47 263.062 186.15 252.731 209.398C245.165 226.512 231.058 240.35 213.611 247.772C190.057 257.763 167.81 272.174 148.468 291.147C61.2115 376.74 66.6767 519.05 165.35 597.297C238.446 655.304 345.436 657.543 421.051 602.471L421.196 602.328Z" stroke="#3D3E67" stroke-miterlimit="10"/>
<path d="M127.897 413.193C151.314 444.146 181.124 466.26 213.692 479.963C231.139 487.385 245.246 501.222 252.812 518.337C266.781 550.284 289.325 579.525 320.879 602.496C396.494 657.569 503.339 655.472 576.58 597.322C675.253 519.075 680.864 376.908 593.607 291.315C574.266 272.342 552.164 258.074 528.464 247.94C511.017 240.518 496.911 226.68 489.344 209.566C479.159 186.461 464.468 164.638 445.126 145.665C357.869 60.0715 212.794 65.4324 133.026 162.224C73.8911 233.927 71.6086 338.877 127.752 413.05L127.897 413.193Z" stroke="#3D3E67" stroke-miterlimit="10"/>
</svg>
