<svg width="24" height="24" viewBox="0 0 24 24" fill="none" xmlns="http://www.w3.org/2000/svg">
<g clip-path="url(#clip0_13_37)">
<path d="M13.42 0.83999C12.42 1.23999 11.29 1.23999 10.29 0.83999C8.94 0.29999 7.47 -9.76585e-06 5.92 -9.76585e-06C4.18 -9.76585e-06 2.53 0.36999 1.04 1.04999C0.37 2.52999 0 4.17999 0 5.91999C0 7.45999 0.3 8.92999 0.84 10.29C1.24 11.29 1.24 12.42 0.84 13.42C0.3 14.77 0 16.24 0 17.79C0 19.53 0.38 21.18 1.05 22.67C2.02 23.11 3.06 23.43 4.14 23.59C6.33 23.91 8.43 23.63 10.29 22.88C11.29 22.48 12.42 22.48 13.42 22.88C15.28 23.62 17.37 23.91 19.57 23.59C20.66 23.43 21.69 23.11 22.67 22.66C23.11 21.69 23.43 20.65 23.6 19.56C23.92 17.37 23.64 15.27 22.89 13.41C22.49 12.41 22.49 11.28 22.89 10.28C23.63 8.41999 23.92 6.32999 23.6 4.12999C23.44 3.03999 23.12 2.00999 22.68 1.03999C21.19 0.36999 19.54 -0.0100098 17.8 -0.0100098C16.26 -0.0100098 14.79 0.28999 13.43 0.82999L13.42 0.83999Z" fill="#3D3E67"/>
</g>
<defs>
<clipPath id="clip0_13_37">
<rect width="23.72" height="23.72" fill="white"/>
</clipPath>
</defs>
</svg>
